<svg width="192" height="32" viewBox="0 0 192 32" fill="none" xmlns="http://www.w3.org/2000/svg">
<path d="M43.3896 6.51562H46.6143L51.3623 20.0869L56.1104 6.51562H59.335L52.6572 25H50.0674L43.3896 6.51562ZM41.6504 6.51562H44.8623L45.4463 19.7441V25H41.6504V6.51562ZM57.8623 6.51562H61.0869V25H57.2783V19.7441L57.8623 6.51562ZM72.3223 21.7119V11.2637H75.9785V25H72.5381L72.3223 21.7119ZM72.7285 18.8936L73.8076 18.8682C73.8076 19.7822 73.7018 20.6328 73.4902 21.4199C73.2786 22.1986 72.9613 22.8757 72.5381 23.4512C72.1149 24.0182 71.5817 24.4626 70.9385 24.7842C70.2952 25.0973 69.5378 25.2539 68.666 25.2539C67.9974 25.2539 67.3796 25.1608 66.8125 24.9746C66.2539 24.7799 65.7715 24.4795 65.3652 24.0732C64.9674 23.6585 64.6543 23.1296 64.4258 22.4863C64.2057 21.8346 64.0957 21.0518 64.0957 20.1377V11.2637H67.752V20.1631C67.752 20.5693 67.7985 20.9121 67.8916 21.1914C67.9932 21.4707 68.1328 21.6992 68.3105 21.877C68.4883 22.0547 68.6956 22.1816 68.9326 22.2578C69.1781 22.334 69.4489 22.3721 69.7451 22.3721C70.4984 22.3721 71.0908 22.2197 71.5225 21.915C71.9626 21.6104 72.2715 21.1956 72.4492 20.6709C72.6354 20.1377 72.7285 19.5452 72.7285 18.8936ZM86.1982 21.2041C86.1982 20.9417 86.1221 20.7048 85.9697 20.4932C85.8174 20.2816 85.5339 20.0869 85.1191 19.9092C84.7129 19.723 84.1247 19.5537 83.3545 19.4014C82.6605 19.249 82.013 19.0586 81.4121 18.8301C80.8197 18.5931 80.3034 18.3096 79.8633 17.9795C79.4316 17.6494 79.0931 17.2601 78.8477 16.8115C78.6022 16.3545 78.4795 15.834 78.4795 15.25C78.4795 14.6745 78.6022 14.1328 78.8477 13.625C79.1016 13.1172 79.4613 12.6686 79.9268 12.2793C80.4007 11.8815 80.9762 11.5726 81.6533 11.3525C82.3389 11.124 83.109 11.0098 83.9639 11.0098C85.1572 11.0098 86.1813 11.2002 87.0361 11.5811C87.8994 11.9619 88.5596 12.4867 89.0166 13.1553C89.4821 13.8154 89.7148 14.5687 89.7148 15.415H86.0586C86.0586 15.0596 85.9824 14.7422 85.8301 14.4629C85.6862 14.1751 85.4577 13.9508 85.1445 13.79C84.8398 13.6208 84.4421 13.5361 83.9512 13.5361C83.5449 13.5361 83.1937 13.6081 82.8975 13.752C82.6012 13.8874 82.3727 14.0736 82.2119 14.3105C82.0596 14.5391 81.9834 14.793 81.9834 15.0723C81.9834 15.2839 82.0257 15.4743 82.1104 15.6436C82.2035 15.8044 82.3516 15.9525 82.5547 16.0879C82.7578 16.2233 83.0202 16.3503 83.3418 16.4688C83.6719 16.5788 84.0781 16.6803 84.5605 16.7734C85.5508 16.9766 86.4352 17.2432 87.2139 17.5732C87.9925 17.8949 88.6104 18.335 89.0674 18.8936C89.5244 19.4437 89.7529 20.1673 89.7529 21.0645C89.7529 21.6738 89.6175 22.2324 89.3467 22.7402C89.0758 23.248 88.6865 23.6924 88.1787 24.0732C87.6709 24.4456 87.0615 24.7376 86.3506 24.9492C85.6481 25.1523 84.8568 25.2539 83.9766 25.2539C82.6986 25.2539 81.6152 25.0254 80.7266 24.5684C79.8464 24.1113 79.1777 23.5316 78.7207 22.8291C78.2721 22.1182 78.0479 21.3903 78.0479 20.6455H81.5137C81.5306 21.1449 81.6576 21.5469 81.8945 21.8516C82.14 22.1562 82.4489 22.3763 82.8213 22.5117C83.2021 22.6471 83.6126 22.7148 84.0527 22.7148C84.5267 22.7148 84.9202 22.6514 85.2334 22.5244C85.5465 22.389 85.7835 22.2113 85.9443 21.9912C86.1136 21.7627 86.1982 21.5003 86.1982 21.2041ZM95.9863 11.2637V25H92.3174V11.2637H95.9863ZM92.0889 7.68359C92.0889 7.15039 92.2751 6.71029 92.6475 6.36328C93.0199 6.01628 93.5192 5.84277 94.1455 5.84277C94.7633 5.84277 95.2585 6.01628 95.6309 6.36328C96.0117 6.71029 96.2021 7.15039 96.2021 7.68359C96.2021 8.2168 96.0117 8.6569 95.6309 9.00391C95.2585 9.35091 94.7633 9.52441 94.1455 9.52441C93.5192 9.52441 93.0199 9.35091 92.6475 9.00391C92.2751 8.6569 92.0889 8.2168 92.0889 7.68359ZM104.683 22.3975C105.131 22.3975 105.529 22.3128 105.876 22.1436C106.223 21.9658 106.494 21.7204 106.688 21.4072C106.892 21.0856 106.997 20.709 107.006 20.2773H110.446C110.438 21.2422 110.18 22.1012 109.672 22.8545C109.164 23.5993 108.483 24.1875 107.628 24.6191C106.773 25.0423 105.817 25.2539 104.759 25.2539C103.692 25.2539 102.761 25.0762 101.966 24.7207C101.179 24.3652 100.523 23.8743 99.998 23.248C99.4733 22.6133 99.0798 21.877 98.8174 21.0391C98.555 20.1927 98.4238 19.2871 98.4238 18.3223V17.9541C98.4238 16.9808 98.555 16.0752 98.8174 15.2373C99.0798 14.391 99.4733 13.6546 99.998 13.0283C100.523 12.3936 101.179 11.8984 101.966 11.543C102.753 11.1875 103.675 11.0098 104.733 11.0098C105.859 11.0098 106.845 11.2256 107.691 11.6572C108.546 12.0889 109.215 12.7067 109.697 13.5107C110.188 14.3063 110.438 15.25 110.446 16.3418H107.006C106.997 15.8848 106.9 15.4701 106.714 15.0977C106.536 14.7253 106.274 14.429 105.927 14.209C105.588 13.9805 105.169 13.8662 104.67 13.8662C104.137 13.8662 103.701 13.9805 103.362 14.209C103.024 14.429 102.761 14.7337 102.575 15.123C102.389 15.5039 102.258 15.9398 102.182 16.4307C102.114 16.9131 102.08 17.4209 102.08 17.9541V18.3223C102.08 18.8555 102.114 19.3675 102.182 19.8584C102.249 20.3493 102.376 20.7852 102.562 21.166C102.757 21.5469 103.024 21.8473 103.362 22.0674C103.701 22.2874 104.141 22.3975 104.683 22.3975Z" fill="white"/>
<path d="M126.468 18.4111H121.758V15.4404H126.468C127.196 15.4404 127.788 15.3219 128.245 15.085C128.702 14.8395 129.036 14.501 129.248 14.0693C129.46 13.6377 129.565 13.151 129.565 12.6094C129.565 12.0592 129.46 11.5472 129.248 11.0732C129.036 10.5993 128.702 10.2184 128.245 9.93066C127.788 9.6429 127.196 9.49902 126.468 9.49902H123.078V25H119.27V6.51562H126.468C127.915 6.51562 129.155 6.77799 130.188 7.30273C131.229 7.81901 132.024 8.53418 132.574 9.44824C133.124 10.3623 133.399 11.4076 133.399 12.584C133.399 13.7773 133.124 14.8099 132.574 15.6816C132.024 16.5534 131.229 17.2262 130.188 17.7002C129.155 18.1742 127.915 18.4111 126.468 18.4111ZM139.658 5.5V25H135.989V5.5H139.658ZM150.094 21.9023V15.7832C150.094 15.3431 150.022 14.9665 149.878 14.6533C149.734 14.3317 149.51 14.082 149.205 13.9043C148.909 13.7266 148.524 13.6377 148.05 13.6377C147.644 13.6377 147.292 13.7096 146.996 13.8535C146.7 13.9889 146.471 14.1878 146.311 14.4502C146.15 14.7041 146.069 15.0046 146.069 15.3516H142.413C142.413 14.7676 142.549 14.2132 142.819 13.6885C143.09 13.1637 143.484 12.7025 144 12.3047C144.516 11.8984 145.13 11.5811 145.841 11.3525C146.56 11.124 147.364 11.0098 148.253 11.0098C149.319 11.0098 150.267 11.1875 151.097 11.543C151.926 11.8984 152.578 12.4316 153.052 13.1426C153.534 13.8535 153.775 14.7422 153.775 15.8086V21.6865C153.775 22.4398 153.822 23.0576 153.915 23.54C154.008 24.014 154.144 24.4287 154.321 24.7842V25H150.627C150.449 24.6276 150.314 24.1621 150.221 23.6035C150.136 23.0365 150.094 22.4694 150.094 21.9023ZM150.576 16.6338L150.602 18.7031H148.558C148.075 18.7031 147.656 18.7581 147.301 18.8682C146.945 18.9782 146.653 19.1348 146.425 19.3379C146.196 19.5326 146.027 19.7611 145.917 20.0234C145.815 20.2858 145.765 20.5736 145.765 20.8867C145.765 21.1999 145.837 21.4834 145.98 21.7373C146.124 21.9827 146.332 22.1774 146.603 22.3213C146.873 22.4567 147.191 22.5244 147.555 22.5244C148.105 22.5244 148.583 22.4144 148.989 22.1943C149.396 21.9743 149.709 21.7035 149.929 21.3818C150.157 21.0602 150.276 20.7555 150.284 20.4678L151.249 22.0166C151.114 22.3636 150.927 22.7233 150.69 23.0957C150.462 23.4681 150.17 23.8193 149.814 24.1494C149.459 24.471 149.032 24.7376 148.532 24.9492C148.033 25.1523 147.44 25.2539 146.755 25.2539C145.883 25.2539 145.092 25.0804 144.381 24.7334C143.678 24.3779 143.12 23.8913 142.705 23.2734C142.299 22.6471 142.096 21.9362 142.096 21.1406C142.096 20.4212 142.231 19.7822 142.502 19.2236C142.773 18.665 143.171 18.1953 143.695 17.8145C144.229 17.4251 144.893 17.1331 145.688 16.9385C146.484 16.7354 147.407 16.6338 148.456 16.6338H150.576ZM160.466 23.4512L164.109 11.2637H168.032L162.51 27.0693C162.391 27.4163 162.23 27.7887 162.027 28.1865C161.833 28.5843 161.566 28.9609 161.228 29.3164C160.897 29.6803 160.479 29.9766 159.971 30.2051C159.471 30.4336 158.858 30.5479 158.13 30.5479C157.783 30.5479 157.499 30.5267 157.279 30.4844C157.059 30.4421 156.797 30.3828 156.492 30.3066V27.6279C156.585 27.6279 156.683 27.6279 156.784 27.6279C156.886 27.6364 156.983 27.6406 157.076 27.6406C157.559 27.6406 157.952 27.5856 158.257 27.4756C158.562 27.3656 158.807 27.1963 158.993 26.9678C159.179 26.7477 159.327 26.46 159.438 26.1045L160.466 23.4512ZM158.942 11.2637L161.926 21.2168L162.446 25.0889L159.958 25.3555L155.02 11.2637H158.942ZM175.637 25.2539C174.57 25.2539 173.614 25.0846 172.768 24.7461C171.921 24.3991 171.202 23.9209 170.609 23.3115C170.025 22.7021 169.577 21.9954 169.264 21.1914C168.951 20.3789 168.794 19.5156 168.794 18.6016V18.0938C168.794 17.0527 168.942 16.1006 169.238 15.2373C169.535 14.374 169.958 13.625 170.508 12.9902C171.066 12.3555 171.743 11.8688 172.539 11.5303C173.335 11.1833 174.232 11.0098 175.23 11.0098C176.204 11.0098 177.067 11.1706 177.82 11.4922C178.574 11.8138 179.204 12.2708 179.712 12.8633C180.228 13.4557 180.618 14.1667 180.88 14.9961C181.142 15.8171 181.273 16.7311 181.273 17.7383V19.2617H170.355V16.8242H177.681V16.5449C177.681 16.0371 177.588 15.5843 177.401 15.1865C177.224 14.7803 176.953 14.4587 176.589 14.2217C176.225 13.9847 175.759 13.8662 175.192 13.8662C174.71 13.8662 174.295 13.972 173.948 14.1836C173.601 14.3952 173.318 14.6914 173.098 15.0723C172.886 15.4531 172.725 15.9017 172.615 16.418C172.514 16.9258 172.463 17.4844 172.463 18.0938V18.6016C172.463 19.1517 172.539 19.6595 172.691 20.125C172.852 20.5905 173.076 20.9925 173.364 21.3311C173.66 21.6696 174.016 21.932 174.431 22.1182C174.854 22.3044 175.332 22.3975 175.865 22.3975C176.525 22.3975 177.139 22.2705 177.706 22.0166C178.282 21.7542 178.777 21.3607 179.191 20.8359L180.969 22.7656C180.681 23.1803 180.287 23.5781 179.788 23.959C179.297 24.3398 178.705 24.653 178.011 24.8984C177.317 25.1354 176.525 25.2539 175.637 25.2539ZM187.012 14.2598V25H183.355V11.2637H186.796L187.012 14.2598ZM191.15 11.1748L191.087 14.5645C190.909 14.5391 190.693 14.5179 190.439 14.501C190.194 14.4756 189.97 14.4629 189.767 14.4629C189.25 14.4629 188.802 14.5306 188.421 14.666C188.049 14.793 187.735 14.9834 187.481 15.2373C187.236 15.4912 187.05 15.8001 186.923 16.1641C186.804 16.528 186.737 16.9427 186.72 17.4082L185.983 17.1797C185.983 16.291 186.072 15.4743 186.25 14.7295C186.428 13.9762 186.686 13.3203 187.024 12.7617C187.371 12.2031 187.795 11.7715 188.294 11.4668C188.793 11.1621 189.365 11.0098 190.008 11.0098C190.211 11.0098 190.418 11.0267 190.63 11.0605C190.841 11.0859 191.015 11.124 191.15 11.1748Z" fill="#805EC0"/>
<path d="M29.0375 14.2875L11.0375 3.29999C10.7377 3.10999 10.3914 3.006 10.0365 2.99939C9.68161 2.99278 9.33171 3.08379 9.02501 3.26249C8.71377 3.43325 8.45432 3.68474 8.27394 3.9905C8.09356 4.29626 7.99893 4.64499 8.00001 4.99999V27C7.99893 27.355 8.09356 27.7037 8.27394 28.0095C8.45432 28.3152 8.71377 28.5667 9.02501 28.7375C9.33171 28.9162 9.68161 29.0072 10.0365 29.0006C10.3914 28.994 10.7377 28.89 11.0375 28.7L29.0375 17.7125C29.3325 17.5345 29.5766 17.2833 29.746 16.9833C29.9154 16.6833 30.0044 16.3445 30.0044 16C30.0044 15.6554 29.9154 15.3167 29.746 15.0167C29.5766 14.7167 29.3325 14.4655 29.0375 14.2875V14.2875Z" fill="#805EC0"/>
</svg>
